HIERARCHY
ROOT ui
{
	 OFFSET 0 0 0
	 CHANNELS 3 XPosition YPosition Z Position
	 EndSite
	 {
	 OFFSET 0 -1 0
	 }
}
ROOT li
{
	 OFFSET 0 0 0
	 CHANNELS 3 XPosition YPosition Z Position
	 EndSite
	 {
	 OFFSET 0 -1 0
	 }
}
ROOT ul
{
	 OFFSET 0 0 0
	 CHANNELS 3 XPosition YPosition Z Position
	 EndSite
	 {
	 OFFSET 0 -1 0
	 }
}
ROOT ll
{
	 OFFSET 0 0 0
	 CHANNELS 3 XPosition YPosition Z Position
	 EndSite
	 {
	 OFFSET 0 -1 0
	 }
}
ROOT tt
{
	 OFFSET 0 0 0
	 CHANNELS 3 XPosition YPosition Z Position
	 EndSite
	 {
	 OFFSET 0 -1 0
	 }
}
ROOT tb
{
	 OFFSET 0 0 0
	 CHANNELS 3 XPosition YPosition Z Position
	 EndSite
	 {
	 OFFSET 0 -1 0
	 }
}
ROOT td
{
	 OFFSET 0 0 0
	 CHANNELS 3 XPosition YPosition Z Position
	 EndSite
	 {
	 OFFSET 0 -1 0
	 }
}
ROOT v
{
	 OFFSET 0 0 0
	 CHANNELS 3 XPosition YPosition Z Position
	 EndSite
	 {
	 OFFSET 0 -1 0
	 }
}
ROOT bn
{
	 OFFSET 0 0 0
	 CHANNELS 3 XPosition YPosition Z Position
	 EndSite
	 {
	 OFFSET 0 -1 0
	 }
}
MOTION
Frames: 32
Frame Time: 0.002
-0.0016525520086288453	0.0021290760040283204	0		0.5252568969726562	-2.40658154296875	0		-1.157722900390625	0.11326554107666016	0		-0.7746213989257813	-2.61519677734375	0		1.4979266357421874	-0.7370421142578125	0		3.302563232421875	-0.10183419799804687	0		4.69168408203125	0.01999574661254883	0		5.61454248046875	0.09767217254638672	0		-0.31631451416015627	5.86111181640625	0		
0.009525099754333495	-0.008111817359924316	0		0.5575814819335938	-2.4049970703125	0		-1.112426025390625	0.1167061996459961	0		-0.7353196411132813	-2.61669677734375	0		1.4962928466796874	-0.7271434936523438	0		3.3188212890625	-0.10306050109863281	0		4.69889697265625	0.01387302017211914	0		5.61063623046875	0.147849853515625	0		-0.3161442565917969	5.86196142578125	0		
8.613629937171936E-4	0.0018364830017089844	0		0.5479252319335938	-2.3990302734375	0		-1.1162144775390626	0.11259156799316407	0		-0.73402490234375	-2.6168486328125	0		1.4945194091796874	-0.7312294921875	0		3.309124267578125	-0.09704485321044921	0		4.6901455078125	0.013904552459716796	0		5.61152880859375	0.14777850341796875	0		-0.31499935913085936	5.86181689453125	0		
-9.504560232162475E-4	-0.0022638890743255616	0		0.5451460571289063	-2.404112548828125	0		-1.114993408203125	0.1124456787109375	0		-0.7367916259765624	-2.620952880859375	0		1.49272021484375	-0.7353041381835937	0		3.306305419921875	-0.10207950592041015	0		4.7123671875	0.013675690650939942	0		5.6137119140625	0.114824951171875	0		-0.3138773498535156	5.8616845703125	0		
-0.01683934020996094	-0.011232595443725586	0		0.5283314208984375	-2.409063720703125	0		-1.1587613525390625	0.11770162963867188	0		-0.7355599365234375	-2.621081787109375	0		1.4939208984375	-0.735396484375	0		3.297435302734375	-0.10905489349365234	0		4.70154736328125	0.012740545272827149	0		5.61456201171875	0.11477962493896485	0		-0.3468444213867187	5.85485888671875	0		
0.004419486999511718	0.0014846509695053101	0		0.560531005859375	-2.40743310546875	0		-1.146625732421875	0.11648004913330078	0		-0.766311279296875	-2.613923828125	0		1.51594775390625	-0.7506637573242188	0		3.33072998046875	-0.09239125061035157	0		4.71674560546875	0.01858231544494629	0		5.6182783203125	0.12678778076171876	0		-0.2956504211425781	5.870310546875	0		
-0.013421026229858399	0.008548707962036132	0		0.5297939453125	-2.3922490234375	0		-1.1364688720703124	0.123285400390625	0		-0.7251694946289062	-2.613381591796875	0		1.5081954345703126	-0.7346655883789063	0		3.28074462890625	-0.1020028305053711	0		4.70480029296875	0.013660584449768066	0		5.61616748046875	0.11469805908203125	0		-0.3107116088867187	5.8613447265625	0		
0.006562357902526856	0.0012916070222854614	0		0.553806884765625	-2.399533935546875	0		-1.1214434814453125	0.12105747985839843	0		-0.7640995483398437	-2.61413720703125	0		1.5002755126953125	-0.7316619262695313	0		3.31078955078125	-0.10230595397949219	0		4.7168447265625	0.013530850410461426	0		5.60847265625	0.147704345703125	0		-0.3097393798828125	5.861248046875	0		
-0.018449052810668946	0.0014300240278244019	0		0.5528025512695313	-2.40159716796875	0		-1.1095352783203125	0.11186457061767578	0		-0.6911389770507812	-2.620853759765625	0		1.4982364501953125	-0.7357064819335938	0		3.3117783203125	-0.10235751342773437	0		4.71783203125	0.013494074821472168	0		5.6134150390625	0.13545599365234376	0		-0.3098046875	5.8621669921875	0		
0.0054434571266174315	-0.0028504929542541506	0		0.55375048828125	-2.401674560546875	0		-1.1086082763671874	0.11177340698242187	0		-0.7641519165039062	-2.616302734375	0		1.4991705322265625	-0.73577587890625	0		3.322758544921875	-0.09649836730957032	0		4.70776025390625	0.013546510696411133	0		5.62178759765625	0.097171142578125	0		-0.34197625732421877	5.85636767578125	0		
-0.006732250213623047	-0.00781753921508789	0		0.5655794677734375	-2.40784521484375	0		-1.1077420654296875	0.1116874008178711	0		-0.7252794799804687	-2.61771435546875	0		1.509024169921875	-0.7379240112304688	0		3.31357470703125	-0.10247161102294922	0		4.7126787109375	0.019460216522216797	0		5.61759326171875	0.14736305236816405	0		-0.3080934753417969	5.86200146484375	0		
0.010150303840637207	9.657729864120483E-4	0		0.56150537109375	-2.394879150390625	0		-1.0978768310546876	0.11852747344970703	0		-0.7574036254882812	-2.6105107421875	0		1.50691845703125	-0.7279717407226562	0		3.31438037109375	-0.102538818359375	0		4.69943310546875	0.013518684387207032	0		5.61103564453125	0.14740887451171875	0		-0.3063163146972656	5.86091357421875	0		
-0.01510496425628662	0.0011122779846191406	0		0.5582078857421875	-2.399921630859375	0		-1.117115234375	0.12062136840820313	0		-0.6867296142578125	-2.619192626953125	0		1.50462841796875	-0.7320223999023437	0		3.324106689453125	-0.10469178009033203	0		4.72117578125	0.013263130187988281	0		5.61869873046875	0.1471319122314453	0		-0.32165371704101564	5.8519736328125	0		
0.011575974464416505	8.106579780578614E-4	0		0.5568677978515625	-2.40198291015625	0		-1.11643310546875	0.12054625701904297	0		-0.7210257568359375	-2.615966796875	0		1.505308837890625	-0.732102783203125	0		3.31085791015625	-0.09665531158447266	0		4.7108583984375	0.01327121353149414	0		5.6120517578125	0.14712815856933595	0		-0.30587435913085936	5.861767578125	0		
-0.01683713150024414	-0.0030161190032958985	0		0.5574767456054688	-2.402062744140625	0		-1.110846923828125	0.11643133544921876	0		-0.6884794311523438	-2.62331640625	0		1.502891357421875	-0.7361610717773438	0		3.321365234375	-0.109833984375	0		4.70147900390625	0.013258071899414062	0		5.6244404296875	0.09652745819091797	0		-0.3382768859863281	5.8559765625	0		
0.01275593376159668	6.561020016670227E-4	0		0.5509152221679687	-2.414083251953125	0		-1.134259521484375	0.11956953430175782	0		-0.7230415649414063	-2.635085693359375	0		1.5124278564453124	-0.7383270263671875	0		3.32407080078125	-0.09295364379882813	0		4.71015087890625	0.0260765380859375	0		5.62773486328125	0.10837287902832031	0		-0.2885462646484375	5.87047802734375	0		
0.012229877471923828	-0.0024125239849090577	0		0.565572265625	-2.39328759765625	0		-1.0897342529296874	0.12212284088134766	0		-0.7143518676757813	-2.61022607421875	0		1.5100069580078126	-0.7283936767578125	0		3.3174833984375	-0.10300288391113281	0		4.7235380859375	0.012840712547302246	0		5.6203798828125	0.14636746215820312	0		-0.3040655822753906	5.86154248046875	0		
0.013695511817932129	5.015190243721009E-4	0		0.5609221801757812	-2.400328125	0		-1.1043184814453124	0.119189208984375	0		-0.7169786987304687	-2.61426806640625	0		1.5074031982421876	-0.732463134765625	0		3.31297412109375	-0.0970775375366211	0		4.712978515625	0.012800996780395507	0		5.6135595703125	0.14626657104492188	0		-0.3025626220703125	5.86046044921875	0		
-0.011926621437072753	6.50534987449646E-4	0		0.5592469482421875	-2.402395263671875	0		-1.1139307861328125	0.12021561431884766	0		-0.7186570434570313	-2.616316650390625	0		1.50776953125	-0.7325614013671875	0		3.31829736328125	-0.10324517059326171	0		4.72435498046875	0.012560752868652344	0		5.62649755859375	0.09901726531982422	0		-0.3371340026855469	5.8566923828125	0		
-0.014651211738586425	-0.003398144960403442	0		0.5595171508789063	-2.4024794921875	0		-1.1476522216796874	0.11645467376708984	0		-0.72040771484375	-2.6183623046875	0		1.50503271484375	-0.73663525390625	0		3.313657958984375	-0.09733208465576172	0		4.71265673828125	0.011511617660522461	0		5.62599072265625	0.09528341674804687	0		-0.33672677612304686	5.85662255859375	0		
-0.011376139640808105	5.026900172233581E-4	0		0.5617310180664062	-2.400580322265625	0		-1.1323841552734375	0.11927169799804688	0		-0.7531528930664062	-2.61113525390625	0		1.50829443359375	-0.7327621459960938	0		3.31884423828125	-0.10350902557373047	0		4.7289580078125	0.018212841033935546	0		5.6226552734375	0.11235660552978516	0		-0.30134600830078123	5.8602509765625	0		
-0.011205395698547364	4.3266400694847107E-4	0		0.5389174194335937	-2.3934609375	0		-1.104133544921875	0.12797854614257811	0		-0.7160601806640625	-2.614513671875	0		1.51148583984375	-0.7288878784179688	0		3.323056396484375	-0.09867847442626954	0		4.7081298828125	0.018234594345092774	0		5.629193359375	0.1119141845703125	0		-0.2670110168457031	5.86588916015625	0		
-0.011101295471191406	3.666119873523712E-4	0		0.5619119873046875	-2.400739013671875	0		-1.103105712890625	0.11892572784423829	0		-0.7160078125	-2.61456591796875	0		1.5085406494140625	-0.7329577026367188	0		3.3430966796875	-0.10598527526855468	0		4.72518115234375	0.011926581382751465	0		5.62153759765625	0.144644775390625	0		-0.267781982421875	5.8668369140625	0		
-0.011057944297790527	3.0555298924446104E-4	0		0.5598900146484375	-2.402793701171875	0		-1.1130509033203124	0.11997409820556641	0		-0.683061767578125	-2.619902099609375	0		1.5055343017578124	-0.7370225830078125	0		3.314208984375	-0.09785920715332032	0		4.71422509765625	0.011867545127868652	0		5.62156640625	0.14434779357910157	0		-0.3016729736328125	5.86107958984375	0		
0.011896933555603027	-0.003951520919799805	0		0.5598329467773437	-2.4028603515625	0		-1.1130576171875	0.1199410171508789	0		-0.7180953979492187	-2.61663623046875	0		1.5055106201171875	-0.73710791015625	0		3.32408349609375	-0.11106802368164062	0		4.70915478515625	0.004762400150299073	0		5.62636767578125	0.09378656005859375	0		-0.32052920532226564	5.865197265625	0		
-0.011118860244750976	2.0257900655269622E-4	0		0.5457249755859375	-2.403796142578125	0		-1.0931253662109375	0.11773895263671875	0		-0.6953235473632813	-2.6308720703125	0		1.514426025390625	-0.7392651977539062	0		3.326178955078125	-0.09420063018798829	0		4.71620849609375	0.01655836296081543	0		5.63635693359375	0.10540852355957031	0		-0.2844303894042969	5.868837890625	0		
0.021847993850708007	0.005871668815612793	0		0.5656624145507813	-2.3960234375	0		-1.1271712646484375	0.12202109527587891	0		-0.7472377319335938	-2.605439697265625	0		1.5114150390625	-0.7293086547851563	0		3.31900439453125	-0.10424381256103515	0		4.720150390625	0.01939002990722656	0		5.6227607421875	0.11062985229492188	0		-0.30047787475585935	5.85994580078125	0		
0.014686095237731933	-9.624899923801422E-5	0		0.5614620971679688	-2.401028564453125	0		-1.1042259521484374	0.12780979919433594	0		-0.6815068359375	-2.618038330078125	0		1.5082562255859375	-0.7333412475585938	0		3.31889306640625	-0.104338623046875	0		4.71397119140625	0.011321130752563477	0		5.6213740234375	0.14328985595703125	0		-0.26741140747070313	5.8666298828125	0		
0.014558493614196777	-1.1554999649524689E-4	0		0.55927001953125	-2.403040771484375	0		-1.1524200439453125	0.12023831939697266	0		-0.7556471557617187	-2.613387939453125	0		1.5050789794921875	-0.7373629760742187	0		3.318763427734375	-0.10442239379882813	0		4.71384375	0.011210132598876953	0		5.61414794921875	0.14322352600097657	0		-0.3014764099121094	5.86091748046875	0		
-0.011583847045898437	1.0731200128793717E-4	0		0.5590796508789062	-2.4030595703125	0		-1.1035718994140624	0.11881746673583984	0		-0.7188697509765625	-2.616709716796875	0		1.504921142578125	-0.7374003295898437	0		3.309627197265625	-0.10341532135009765	0		4.71370068359375	0.011109962463378906	0		5.625984375	0.09259336090087891	0		-0.33455712890625	5.855208984375	0		
0.014256507873535156	-1.205729991197586E-4	0		0.5428385009765625	-2.406924560546875	0		-1.1776806640625	0.12450173950195312	0		-0.7540341796875	-2.611380615234375	0		1.507783447265625	-0.7334534912109375	0		3.318457275390625	-0.10455740356445313	0		4.717595703125	0.0169843807220459	0		5.6168310546875	0.15661761474609376	0		-0.28545941162109373	5.8707822265625	0		
-0.00789001178741455	0.0030906429290771483	0		0.5647134399414062	-2.396116943359375	0		-1.0998643798828125	0.1228442153930664	0		-0.7142532958984374	-2.610707275390625	0		1.5106302490234376	-0.7294954223632812	0		3.318281005859375	-0.104608642578125	0		4.72436767578125	0.010842864990234374	0		5.62093310546875	0.142520263671875	0		-0.30061361694335936	5.8599375	0		
